<?xml version="1.0" encoding="UTF-8"?>
<svg width="128" height="128" viewBox="0 0 128 128" xmlns="http://www.w3.org/2000/svg">
  <defs>
    <linearGradient id="g" x1="0" x2="1" y1="0" y2="1">
      <stop offset="0%" stop-color="#C8A2FF"/>
      <stop offset="100%" stop-color="#FFD1E8"/>
    </linearGradient>
  </defs>
  <rect x="0" y="0" width="128" height="128" rx="18" fill="#fff"/>
  <g transform="translate(64,64)">
    <!-- simple butterfly wings -->
    <path d="M-6 -6 C -36 -24, -48 -6, -24 6 C -44 22, -16 36, -6 14 Z" fill="url(#g)" stroke="#9a6fd8" stroke-width="2"/>
    <path d="M6 -6 C 36 -24, 48 -6, 24 6 C 44 22, 16 36, 6 14 Z" fill="url(#g)" stroke="#9a6fd8" stroke-width="2"/>
    <path d="M-2 -20 C -4 -8, -4 8, -2 20 C 0 16, 0 -16, -2 -20 Z" fill="#6a3f9a"/>
    <path d="M2 -20 C 4 -8, 4 8, 2 20 C 0 16, 0 -16, 2 -20 Z" fill="#6a3f9a"/>
    <circle cx="0" cy="-22" r="3" fill="#6a3f9a"/>
  </g>
</svg>